<svg width="24" height="24" viewBox="0 0 24 24" fill="none" xmlns="http://www.w3.org/2000/svg">
<path fill-rule="evenodd" clip-rule="evenodd" d="M13 4.00003V2.21003C13 1.76003 12.46 1.54003 12.15 1.86003L9.35 4.65003C9.15 4.85003 9.15 5.16003 9.35 5.36003L12.14 8.15003C12.46 8.46003 13 8.24003 13 7.79003V6.00003C16.31 6.00003 19 8.69003 19 12C19 12.79 18.85 13.56 18.56 14.25C18.41 14.61 18.52 15.02 18.79 15.29C19.3 15.8 20.16 15.62 20.43 14.95C20.8 14.04 21 13.04 21 12C21 7.58003 17.42 4.00003 13 4.00003ZM13 18C9.69 18 7 15.31 7 12C7 11.21 7.15 10.44 7.44 9.75003C7.59 9.39003 7.48 8.98003 7.21 8.71003C6.7 8.20003 5.84 8.38003 5.57 9.05003C5.2 9.96003 5 10.96 5 12C5 16.42 8.58 20 13 20V21.79C13 22.24 13.54 22.46 13.85 22.14L16.64 19.35C16.84 19.15 16.84 18.84 16.64 18.64L13.85 15.85C13.54 15.54 13 15.76 13 16.21V18Z" fill="#B60414"/>
</svg>
