<svg width="14" height="18" viewBox="0 0 14 18" fill="none" xmlns="http://www.w3.org/2000/svg">
<path fill-rule="evenodd" clip-rule="evenodd" d="M1 16C1 17.1 1.9 18 3 18H11C12.1 18 13 17.1 13 16V6C13 4.9 12.1 4 11 4H3C1.9 4 1 4.9 1 6V16ZM4.17 8.17C4.56 7.78 5.19 7.78 5.58 8.17L7 9.59L8.42 8.17C8.81 7.78 9.44 7.78 9.83 8.17C10.22 8.56 10.22 9.19 9.83 9.58L8.41 11L9.83 12.42C10.22 12.81 10.22 13.44 9.83 13.83C9.44 14.22 8.81 14.22 8.42 13.83L7 12.41L5.58 13.83C5.19 14.22 4.56 14.22 4.17 13.83C3.78 13.44 3.78 12.81 4.17 12.42L5.59 11L4.17 9.58C3.78 9.2 3.78 8.56 4.17 8.17ZM10.5 1L9.79 0.29C9.61 0.11 9.35 0 9.09 0H4.91C4.65 0 4.39 0.11 4.21 0.29L3.5 1H1C0.45 1 0 1.45 0 2C0 2.55 0.45 3 1 3H13C13.55 3 14 2.55 14 2C14 1.45 13.55 1 13 1H10.5Z" fill="#B60414"/>
</svg>
