<svg width="24" height="24" viewBox="0 0 24 24" fill="none" xmlns="http://www.w3.org/2000/svg">
<path fill-rule="evenodd" clip-rule="evenodd" d="M4.74988 18.25C4.33988 18.66 4.33988 19.34 4.74988 19.75C5.15988 20.16 5.83988 20.16 6.24988 19.75L8.99988 17H10.9999L8.49988 14.5L4.74988 18.25ZM14.9999 5C16.0999 5 16.9999 4.1 16.9999 3C16.9999 1.9 16.0999 1 14.9999 1C13.8999 1 12.9999 1.9 12.9999 3C12.9999 4.1 13.8999 5 14.9999 5ZM20.2899 20.3L18.2899 18.29C18.1099 18.11 17.8499 18 17.5799 18H16.4999L10.2099 11.71C10.9999 11.38 11.8699 10.84 12.4999 10.32V12.59L16.0799 16.17C16.6499 15.62 16.9999 14.85 16.9999 14.01V8.26C16.9999 7.02 15.9799 6 14.7399 6H14.7199C14.3799 6 14.0499 6.09 13.7599 6.23C13.4999 6.35 13.2599 6.52 13.0699 6.73L11.6699 8.28C10.6099 9.45 8.65988 10.35 6.99988 10.32C6.39988 10.32 5.91988 10.8 5.91988 11.4C5.91988 12 6.39988 12.48 6.99988 12.48C7.30988 12.48 7.60988 12.45 7.89988 12.41L15.0099 19.5V20.58C15.0099 20.84 15.1099 21.1 15.2999 21.28L17.2899 23.29C17.6799 23.68 18.3099 23.68 18.7099 23.29L20.2899 21.71C20.6799 21.33 20.6799 20.69 20.2899 20.3Z" fill="#56CBF9"/>
</svg>
